<?xml version="1.0" standalone="no"?>
<!DOCTYPE svg PUBLIC "-//W3C//DTD SVG 1.1//EN" "http://www.w3.org/Graphics/SVG/1.1/DTD/svg11.dtd" >
<svg xmlns="http://www.w3.org/2000/svg">
<metadata>
Created by FontForge 20120731 at Wed Sep 28 15:52:07 2016
 By admin
</metadata>
<defs>
<font id="iconfont" horiz-adv-x="1024" >
  <font-face 
    font-family="iconfont"
    font-weight="500"
    font-stretch="normal"
    units-per-em="1024"
    panose-1="2 0 6 3 0 0 0 0 0 0"
    ascent="896"
    descent="-128"
    x-height="792"
    bbox="5 -149 1036 849"
    underline-thickness="50"
    underline-position="-100"
    unicode-range="U+0078-E621"
  />
<missing-glyph horiz-adv-x="374" 
d="M34 0v682h272v-682h-272zM68 34h204v614h-204v-614z" />
    <glyph glyph-name=".notdef" horiz-adv-x="374" 
d="M34 0v682h272v-682h-272zM68 34h204v614h-204v-614z" />
    <glyph glyph-name=".null" horiz-adv-x="0" 
 />
    <glyph glyph-name="nonmarkingreturn" horiz-adv-x="341" 
 />
    <glyph glyph-name="x" unicode="x" horiz-adv-x="1001" 
d="M281 543q-27 -1 -53 -1h-83q-18 0 -36.5 -6t-32.5 -18.5t-23 -32t-9 -45.5v-76h912v41q0 16 -0.5 30t-0.5 18q0 13 -5 29t-17 29.5t-31.5 22.5t-49.5 9h-133v-97h-438v97zM955 310v-52q0 -23 0.5 -52t0.5 -58t-10.5 -47.5t-26 -30t-33 -16t-31.5 -4.5q-14 -1 -29.5 -0.5
t-29.5 0.5h-32l-45 128h-439l-44 -128h-29h-34q-20 0 -45 1q-25 0 -41 9.5t-25.5 23t-13.5 29.5t-4 30v167h911zM163 247q-12 0 -21 -8.5t-9 -21.5t9 -21.5t21 -8.5q13 0 22 8.5t9 21.5t-9 21.5t-22 8.5zM316 123q-8 -26 -14 -48q-5 -19 -10.5 -37t-7.5 -25t-3 -15t1 -14.5
t9.5 -10.5t21.5 -4h37h67h81h80h64h36q23 0 34 12t2 38q-5 13 -9.5 30.5t-9.5 34.5q-5 19 -11 39h-368zM336 498v228q0 11 2.5 23t10 21.5t20.5 15.5t34 6h188q31 0 51.5 -14.5t20.5 -52.5v-227h-327z" />
    <glyph glyph-name="uniE600" unicode="&#xe600;" 
d="M512 734q-88 0 -151 -62.5t-63 -151.5q0 -53 24.5 -99t66.5 -75q-88 -37 -142.5 -118t-54.5 -178q0 -6 4.5 -11t11.5 -5t11.5 5t4.5 11q0 94 56 170.5t146 104.5q41 -18 86 -18q88 0 151 62.5t63 151t-63 151t-151 62.5zM512 339q-75 0 -128.5 53t-53.5 128t53.5 128.5
t128.5 53.5t128.5 -53.5t53.5 -128.5t-53.5 -128t-128.5 -53zM768 242q-20 27 -45 49q-12 10 -22.5 -2t1.5 -22q22 -20 40 -44q58 -77 58 -173q0 -6 4.5 -11t11.5 -5t11.5 5t4.5 11q0 107 -64 192z" />
    <glyph glyph-name="uniE601" unicode="&#xe601;" 
d="M758.5 694.5q9.5 -9.5 9.5 -22.5v-256h32v256q0 27 -18.5 45.5t-45.5 18.5h-64v-32h64q13 0 22.5 -9.5zM448 736h128v-32h-128v32zM265.5 73.5q-9.5 9.5 -9.5 22.5v576q0 13 9.5 22.5t22.5 9.5h64v32h-64q-27 0 -45.5 -18.5t-18.5 -45.5v-576q0 -27 18.5 -45.5
t45.5 -18.5h224v32h-224q-13 0 -22.5 9.5zM400 656q7 0 11.5 4.5t4.5 11.5v96q0 7 -4.5 11.5t-11.5 4.5t-11.5 -4.5t-4.5 -11.5v-96q0 -7 4.5 -11.5t11.5 -4.5zM624 656q7 0 11.5 4.5t4.5 11.5v96q0 7 -4.5 11.5t-11.5 4.5t-11.5 -4.5t-4.5 -11.5v-96q0 -7 4.5 -11.5
t11.5 -4.5zM720 528q0 7 -4.5 11.5t-11.5 4.5h-384q-7 0 -11.5 -4.5t-4.5 -11.5t4.5 -11.5t11.5 -4.5h384q7 0 11.5 4.5t4.5 11.5zM592 400q0 7 -4.5 11.5t-11.5 4.5h-256q-7 0 -11.5 -4.5t-4.5 -11.5t4.5 -11.5t11.5 -4.5h256q7 0 11.5 4.5t4.5 11.5zM320 288
q-7 0 -11.5 -4.5t-4.5 -11.5t4.5 -11.5t11.5 -4.5h128q7 0 11.5 4.5t4.5 11.5t-4.5 11.5t-11.5 4.5h-128zM807 258q-6 14 -18 22t-27 8h-116q-15 0 -27 -8t-18 -22l-24 -60v-6h-1v-32h1l-1 -80q0 -20 14 -34t34 -14h160q20 0 34 14t14 34v80v32v1zM800 80q0 -7 -4.5 -11.5
t-11.5 -4.5h-160q-7 0 -11.5 4.5t-4.5 11.5v80h192v-80zM609 192l22 54q2 5 6 7.5t9 2.5h116q5 0 9 -3t6 -7l22 -54h-190zM704 96h64q7 0 11.5 4.5t4.5 11.5t-4.5 11.5t-11.5 4.5h-64q-7 0 -11.5 -4.5t-4.5 -11.5t4.5 -11.5t11.5 -4.5z" />
    <glyph glyph-name="uniE602" unicode="&#xe602;" 
d="M694.5 694.5q-9.5 9.5 -22.5 9.5h-320q-13 0 -22.5 -9.5t-9.5 -22.5v-576q0 -13 9.5 -22.5t22.5 -9.5h320q13 0 22.5 9.5t9.5 22.5v576q0 13 -9.5 22.5zM512 85q-13 0 -22.5 9.5t-9.5 23t9.5 22.5t22.5 9t22.5 -9t9.5 -22.5t-9.5 -23t-22.5 -9.5zM672 160h-320v480h320
v-480z" />
    <glyph glyph-name="uniE603" unicode="&#xe603;" 
d="M512 307q88 0 151 62.5t63 151t-63 151t-151 62.5t-151 -62.5t-63 -151.5q0 -53 24.5 -99t66.5 -75q-88 -37 -142.5 -118t-54.5 -178q0 -6 4.5 -11t11.5 -5t11.5 5t4.5 11q0 94 56 170.5t146 104.5q41 -18 86 -18zM330 520q0 75 53.5 128.5t128.5 53.5t128.5 -53.5
t53.5 -128.5t-53.5 -128t-128.5 -53t-128.5 53t-53.5 128zM768 242q-20 27 -45 49q-12 10 -22.5 -2t1.5 -22q22 -20 40 -44q58 -77 58 -173q0 -6 4.5 -11t11.5 -5t11.5 5t4.5 11q0 107 -64 192zM647 264l-169 -170q-5 -4 -11.5 -4t-11.5 4l-79 80q-10 10 -21.5 -1.5
t-1.5 -21.5l91 -90q9 -10 22.5 -10t22.5 10l181 181q11 11 0 22.5t-23 -0.5z" />
    <glyph glyph-name="uniE604" unicode="&#xe604;" 
d="M832 335q-66 0 -113 -47t-47 -113.5t47 -113t113 -46.5t113 46.5t47 113t-47 113.5t-113 47zM911 215l-90 -90q-5 -5 -11.5 -5t-11.5 5l-45 45q-6 5 0 11t11 0l40 -39q2 -2 5.5 -2t5.5 2l85 85q5 5 11 -0.5t0 -11.5zM584 512h288q7 0 11.5 4.5t4.5 11.5t-4.5 11.5
t-11.5 4.5h-288q-7 0 -11.5 -4.5t-4.5 -11.5t4.5 -11.5t11.5 -4.5zM584 384h288q7 0 11.5 4.5t4.5 11.5t-4.5 11.5t-11.5 4.5h-288q-7 0 -11.5 -4.5t-4.5 -11.5t4.5 -11.5t11.5 -4.5zM616 256q7 0 11.5 4.5t4.5 11.5t-4.5 11.5t-11.5 4.5h-32q-7 0 -11.5 -4.5t-4.5 -11.5
t4.5 -11.5t11.5 -4.5h32zM442.5 311q-10.5 -12 1.5 -23q60 -52 60 -132q0 -7 4.5 -11.5t11.5 -4.5t11.5 4.5t4.5 11.5q0 94 -71 156q-12 11 -22.5 -1zM120 156q0 -7 4.5 -11.5t11.5 -4.5t11.5 4.5t4.5 11.5q0 57 34 103t88 64q26 -11 54 -11q58 0 99.5 41t41.5 99.5
t-41.5 99.5t-99.5 41t-99.5 -41t-41.5 -99q0 -66 53 -109q-55 -26 -87.5 -77t-32.5 -111zM219 453q0 45 32 76.5t77 31.5t77 -31.5t32 -76.5t-32 -77t-77 -32t-77 32t-32 77zM670 64h-534q-17 0 -27 9q-13 14 -13 23v96v416v64q0 9 13 23q10 9 27 9h768q9 0 19 -9
q5 -6 5 -23v-339q17 -10 32 -24v363q0 31 -15 45q-18 19 -41 19h-768q-31 0 -49 -19q-23 -22 -23 -45v-64v-416v-96q0 -23 23 -45q18 -19 49 -19h559q-14 14 -25 32z" />
    <glyph glyph-name="uniE605" unicode="&#xe605;" 
d="M787 468h1v-2q-27 91 -103.5 148.5t-172.5 57.5t-172.5 -57.5t-103.5 -148.5v2h1q-30 -7 -48.5 -30.5t-18.5 -53.5t18.5 -53.5t48.5 -30.5h-1v1q5 -15 20 -11q6 2 9.5 8t1.5 12q-11 36 -11 74q0 106 75 181t181 75t181 -75t75 -181q0 -86 -51.5 -154t-132.5 -92
q-14 22 -40 22h-64q-20 0 -34 -14t-14 -34t14 -34t34 -14h64q19 0 32.5 12.5t15.5 30.5q70 21 122.5 72.5t73.5 122.5v-2h-1q30 7 48.5 30.5t18.5 53.5t-18.5 53.5t-48.5 30.5zM228 432q-1 -6 -1 -9q0 3 1 9zM227 341q0 -1 1 -4t1 -4q0 1 -1 4t-1 4zM796 336q1 6 1 9
q0 -3 -1 -9zM796 432q0 -5 1 -9q0 3 -1 9zM514 208q51 0 93 29.5t59 77.5q2 7 -1 12.5t-9.5 8t-12.5 -0.5t-8 -9q-13 -39 -46.5 -62.5t-74.5 -23.5t-74 23.5t-47 62.5q-2 6 -8 9t-12 1t-9 -8t-1 -12q17 -49 58.5 -78.5t92.5 -29.5z" />
    <glyph glyph-name="uniE606" unicode="&#xe606;" 
d="M670 588l-158 -159l-158 159q-10 9 -23 9t-22.5 -9.5t-9.5 -22.5t9 -23l159 -158l-159 -158q-9 -10 -9 -23t9.5 -22.5t22.5 -9.5t23 9l158 159l158 -159q10 -9 23 -9t22.5 9.5t9.5 22.5t-9 23l-159 158l159 158q9 10 9 23t-9.5 22.5t-22.5 9.5t-23 -9z" />
    <glyph glyph-name="uniE607" unicode="&#xe607;" 
d="M480 640v-224h-224q-13 0 -22.5 -9.5t-9.5 -22.5t9.5 -22.5t22.5 -9.5h224v-224q0 -13 9.5 -22.5t22.5 -9.5t22.5 9.5t9.5 22.5v224h224q13 0 22.5 9.5t9.5 22.5t-9.5 22.5t-22.5 9.5h-224v224q0 13 -9.5 22.5t-22.5 9.5t-22.5 -9.5t-9.5 -22.5z" />
    <glyph glyph-name="uniE608" unicode="&#xe608;" 
d="M512 705q-21 0 -35.5 -14.5t-14.5 -34.5v-249q0 -21 14.5 -35.5t35.5 -14.5t35.5 14.5t14.5 35.5v249q0 20 -14.5 34.5t-35.5 14.5zM512 63q-87 0 -160.5 42.5t-116 116t-42.5 160.5q0 73 32 139t89 111q13 10 28 8t25 -14t8 -27.5t-14 -24.5q-45 -35 -69 -85.5
t-24 -106.5q0 -101 71.5 -173t172.5 -72t172.5 72t71.5 173q0 56 -24 106.5t-69 85.5q-12 9 -14 24.5t8 27.5t25 14t27 -8q58 -45 90 -111t32 -139q0 -87 -42.5 -160.5t-116 -116t-160.5 -42.5z" />
    <glyph glyph-name="uniE609" unicode="&#xe609;" 
d="M922 377l-413 386l-413 -385q-6 -5 -6.5 -13.5t5.5 -14.5t14 -6.5t14 5.5l386 359l385 -360q6 -5 14 -5q9 0 15 6q5 6 5 14t-6 14zM922 377zM796 369q-9 0 -14.5 -6t-5.5 -14v-306h-160v213h-214v-213h-160v306q0 8 -6 14t-14 6t-14 -6t-6 -14v-346h240v213h134v-213h240
v346q0 8 -6 14t-14 6zM796 369zM656 656h120v-107q0 -8 5.5 -14t14 -6t14.5 6t6 14v147h-160q-9 0 -14.5 -6t-5.5 -14.5t5.5 -14t14.5 -5.5zM656 656z" />
    <glyph glyph-name="uniE60A" unicode="&#xe60a;" 
d="M977 -51l-227 228q43 49 69 110q32 75 32 157t-32 158q-31 72 -87 128t-129 87q-75 32 -157.5 32t-157.5 -32q-72 -31 -128 -87t-87 -128q-32 -76 -32 -158t32 -157q31 -73 87 -129t128 -87q75 -32 157.5 -32t157.5 32q61 26 110 69l228 -227q7 -8 17.5 -8t18 7.5
t7.5 18.5t-7 18zM446 90q-147 0 -250.5 104t-103.5 250.5t103.5 250t250 103.5t250 -103.5t103.5 -250.5q0 -143 -99 -246q-3 -2 -5 -3.5t-3 -4.5q-103 -100 -246 -100z" />
    <glyph glyph-name="uniE60B" unicode="&#xe60b;" 
d="M959 127v646q0 25 -17.5 42.5t-42.5 17.5h-570q-24 0 -41.5 -17.5t-17.5 -42.5v-591q-33 22 -72 22q-55 0 -94 -39.5t-39 -94.5t39 -94t94 -39t94 39t39 94v701h567v-535q-33 21 -72 21q-55 0 -94 -39t-39 -94.5t39 -94.5t94 -39t94 39t39 94v4zM198 -2q-30 0 -51 21
t-21 51t21 51t51 21t51 -21t21 -51t-21 -51t-51 -21zM826 52q-30 0 -51 21t-21 50.5t21 50.5t51 21q29 0 50 -20t22 -49v-3v-1q-1 -29 -22 -49.5t-50 -20.5z" />
    <glyph glyph-name="uniE60C" unicode="&#xe60c;" 
d="M849 191q-22 -67 -57 -118q-17 -25 -27.5 -38.5t-27 -30.5t-34.5 -25t-38 -8q-27 0 -65.5 16.5t-71.5 16.5t-72 -16.5t-63 -17.5q-20 -1 -38 7.5t-35.5 26.5t-29 32.5t-28.5 38.5q-38 55 -62 125t-24.5 151t34.5 141q27 47 72.5 75t98.5 29q29 0 76 -18t60 -18t39.5 11
t59 20.5t60.5 6.5q20 -1 41 -5.5t54.5 -24.5t55.5 -52q-90 -61 -89 -158q0 -35 12 -65t26.5 -47.5t33.5 -31.5t27 -17.5t12 -5.5zM634 665q50 62 43 133q-31 -1 -65.5 -18.5t-56.5 -44.5q-22 -25 -35.5 -60t-8.5 -68q33 -2 66.5 14.5t56.5 43.5z" />
    <glyph glyph-name="uniE60D" unicode="&#xe60d;" 
d="M890.5 466q-32.5 41 -84.5 41h-189q16 45 19 91q6 72 -21 121q-33 60 -106 71q-32 5 -55 -12q-14 -11 -23 -31.5t-12 -37t-8 -49.5q-11 -87 -30 -120q-31 -51 -109 -51h-74q-36 0 -62 -26t-26 -63v-335q0 -36 26 -62t62 -26h535q37 0 66.5 23.5t38.5 59.5l73 315
q12 50 -20.5 91zM169 65v335q0 12 8.5 21t20.5 9h62v-394h-62q-12 0 -20.5 8.5t-8.5 20.5zM854 388l-74 -314q-3 -17 -16.5 -27.5t-30.5 -10.5h-414v398q76 14 112 76q26 43 39 142q5 41 9 56q5 18 11 23q3 2 11 1q44 -7 63 -41q18 -39 13.5 -89t-24.5 -94q-9 -21 3.5 -40.5
t35.5 -19.5h214q24 0 38.5 -18.5t9.5 -41.5z" />
    <glyph glyph-name="uniE60E" unicode="&#xe60e;" 
d="M729 276q-42 0 -78 -20t-59 -55l-173 100q18 35 18 73q0 21 -8 46l181 104q49 -53 119 -53q67 0 114.5 47.5t47.5 115t-47.5 115t-114.5 47.5t-114.5 -47.5t-47.5 -115.5q0 -21 7 -46l-180 -104q-49 53 -119 53q-68 0 -115.5 -47.5t-47.5 -114.5t47.5 -115t115.5 -48
q53 0 98 34l-1 -1l196 -112q-1 -14 -1 -18q0 -67 47.5 -114.5t114.5 -47.5t114.5 47.5t47.5 114.5t-47.5 114.5t-114.5 47.5zM729 731q40 0 68.5 -28.5t28.5 -69t-28.5 -69t-68.5 -28.5t-68.5 28.5t-28.5 69t28.5 69t68.5 28.5zM274.5 276q-40.5 0 -69 28.5t-28.5 69
t28.5 69t69 28.5t69 -28.5t28.5 -69t-28.5 -69t-69 -28.5zM729 17q-40 0 -68.5 28.5t-28.5 68.5t28.5 68.5t68.5 28.5t68.5 -28.5t28.5 -68.5t-28.5 -68.5t-68.5 -28.5z" />
    <glyph glyph-name="uniE60F" unicode="&#xe60f;" 
d="M760 481h-413v67q0 69 49 118t118 49t118 -49t49 -118q0 -10 6.5 -16.5t15.5 -6.5t16 6.5t7 16.5q0 87 -62.5 149.5t-149.5 62.5q-88 0 -150 -62t-62 -150v-67h-48q-20 0 -34.5 -14.5t-14.5 -35.5v-342q0 -21 14.5 -35.5t34.5 -14.5h506q21 0 35.5 14.5t14.5 35.5v342
q0 20 -14.5 35t-35.5 15zM765 88q0 -5 -5 -5h-505q-5 0 -5 5v342q0 5 5 5h505q5 0 5 -5v-342zM503.5 364q-19.5 0 -33 -13.5t-13.5 -32.5q0 -26 23 -40v-89q0 -9 6.5 -16t16 -7t16 7t6.5 16v88q25 13 25 41q0 19 -13.5 32.5t-33 13.5z" />
    <glyph glyph-name="uniE610" unicode="&#xe610;" 
d="M760 481h-413v67q0 69 49 118t118 49t118 -49t49 -118q0 -10 6.5 -16.5t15.5 -6.5t16 6.5t7 16.5q0 87 -62.5 149.5t-149.5 62.5q-88 0 -150 -62t-62 -150v-67h-48q-20 0 -34.5 -14.5t-14.5 -35.5v-342q0 -21 14.5 -35.5t34.5 -14.5h506q21 0 35.5 14.5t14.5 35.5v342
q0 20 -14.5 35t-35.5 15zM765 88q0 -5 -5 -5h-505q-5 0 -5 5v342q0 5 5 5h505q5 0 5 -5v-342zM645 368l-182 -181q-1 -1 -1 0l-73 73q-7 7 -16.5 7t-16 -7t-6.5 -16t7 -16l73 -73q13 -13 32.5 -13t32.5 13l181 181q7 7 7 16.5t-6.5 16t-16 6.5t-15.5 -7z" />
    <glyph glyph-name="uniE611" unicode="&#xe611;" 
d="M248 -42q-6 0 -12 4q-10 8 -8 20l48 283l-205 200q-9 9 -5 21t17 14l283 41l127 257q6 12 19 12t18 -12l127 -257l284 -41q12 -2 16 -14t-5 -21l-205 -200l48 -283q3 -12 -7.5 -20t-22.5 -2l-253 134l-254 -134q-4 -2 -10 -2zM130 465l183 -178q8 -8 6 -19l-43 -251
l226 119q10 5 19 0l226 -119l-43 251q-2 11 6 19l183 178l-253 37q-10 1 -15 11l-113 229l-113 -229q-5 -10 -16 -11z" />
    <glyph glyph-name="uniE612" unicode="&#xe612;" 
d="M515 800q28 0 53 -4.5t50.5 -16.5t43.5 -32t30 -53.5t12 -76.5q0 -111 -27.5 -181.5t-84.5 -105.5q-15 -10 -16 -28l-1 -67q0 -13 8 -22.5t21 -10.5q109 -12 184.5 -46.5t75.5 -61.5q0 -37 -31.5 -63t-86 -39t-111.5 -18t-124.5 -5t-124 5t-111 18t-86 39t-31.5 63
q0 27 75.5 61.5t184.5 46.5q12 1 20.5 10.5t8.5 22.5v66q0 19 -16 29q-113 70 -113 287q0 43 11.5 76.5t29.5 53.5t44 32t50.5 16.5t52.5 4.5h9zM515 832h-9q-89 0 -144 -41q-36 -26 -55 -68q-20 -45 -20 -106q0 -57 7 -105q8 -49 23 -88q32 -81 98 -122v0q1 0 1 -1v-66
q0 -1 -1 -2q-114 -11 -198 -50q-38 -17 -60 -36q-30 -26 -30 -53t12 -51q12 -21 32 -37q34 -28 95 -44q92 -25 244.5 -25t244.5 25q61 16 95 44q21 16 32 37q12 24 12 51t-29 53q-23 19 -60 36q-84 39 -198 50q-1 1 -1 2l1 66q0 1 1 1q33 21 57 51.5t40 70.5q29 75 29 193
q0 61 -20 106q-19 42 -55 68q-55 41 -144 41z" />
    <glyph glyph-name="uniE613" unicode="&#xe613;" 
d="M671 704q-27 -27 -56.5 -78.5t-29.5 -88.5q0 -19 8 -32q31 -48 31 -58q0 -6 -17 -25l-2 -2q-31 -37 -55 -59l-3 -4q-2 -1 -5 -3l-3 -4q-23 -22 -58 -53l-1 -1q-29 -25 -37 -26q-11 -1 -45 24q-44 33 -107 3q-33 -16 -92 -65l-3 -2q-36 -29 -36 -67q0 -28 23 -64
q1 -1 1 -2l1 -1q28 -44 67 -56q23 -7 42.5 -8.5t57.5 8.5t85 36q64 35 112.5 71t101.5 87q46 44 70 73t63 83q80 111 80 186q0 22 -1 33t-6 28.5t-18 33.5t-35 34q-29 24 -55 28.5t-42.5 -3.5t-35.5 -26zM783 681q33 -28 40.5 -48t7.5 -57q0 -64 -74 -168
q-38 -52 -61.5 -80.5t-68.5 -71.5q-50 -49 -97 -84t-110 -69q-41 -22 -73 -31.5t-49 -8.5t-36 7q-28 9 -49 42l-1 2q0 1 -1 1q-18 29 -18 48q0 23 25 44l2 2q57 46 94 63.5t65 -3.5q44 -32 68 -30q9 1 18.5 6t16.5 10.5t21 17.5l1 1q39 35 59 55q1 1 3.5 3t3.5 4l4 3
q23 22 57 61l2 2q24 28 24 45q0 20 -35 75q-4 6 -4 16q0 29 26.5 75t50.5 69q14 14 24 19t26 1.5t38 -21.5z" />
    <glyph glyph-name="uniE614" unicode="&#xe614;" 
d="M934 646h-166l-96 96v0q-17 26 -58 26h-204q-41 0 -58 -26l-96 -96h-166q-34 0 -59 -24.5t-25 -58.5v-486q0 -34 25 -58.5t59 -24.5h851q33 0 58 24.5t25 58.5v486q-5 34 -31 58.5t-59 24.5zM378 723q12 13 32 13h204q6 0 10.5 -1.5t12 -5.5t9.5 -6l103 -102l13 -13h19
h173q18 0 31 -12t13 -26v-500q0 -18 -12 -28t-32 -10h-877q-18 0 -28.5 11.5t-10.5 26.5v500q0 18 11.5 28t27.5 10h173h19l13 13l51 51zM512 576q-96 0 -163 -67t-67 -163q0 -97 67.5 -167t162.5 -70q96 0 163 67t67 163q0 97 -67.5 167t-162.5 70zM512 141
q-86 0 -145.5 59t-59.5 145.5t59.5 145.5t145.5 59t145.5 -59t59.5 -145.5t-59.5 -145.5t-145.5 -59zM512 205z" />
    <glyph glyph-name="uniE615" unicode="&#xe615;" 
d="M317 -83q-20 0 -34.5 14t-14.5 34v369l-40 -42q-14 -14 -35 -14q-20 0 -33 13l-115 111q-15 14 -15.5 34t13.5 34l181 187q25 26 40 26h113q34 0 42 -9l7 -7v-9q0 -34 24 -55.5t62 -21.5t62 21.5t24 54.5v9l7 8q8 9 42 9h113q15 0 40 -26l181 -187q13 -14 13 -34.5
t-15 -33.5l-115 -111q-13 -14 -33 -14q-21 0 -35 15l-40 42l-1 -369q0 -20 -14 -34t-34 -14h-390zM283 399q12 0 21 -9t9 -27v-398q0 -3 4 -3h390q4 0 4 3v398q0 18 9 27t21 9q14 0 26 -13l61 -63q2 -2 3 -2t2 2l115 111q1 1 1 2.5t-1 2.5l-180 187q-7 7 -13 12h-108h-6
q-7 -46 -42.5 -73.5t-86.5 -27.5q-52 0 -88 29q-35 27 -42 72h-5h-108q-6 -5 -13 -12l-180 -187q-1 -1 -1 -2.5t1 -2.5l115 -111q1 -2 2 -2t3 2l61 63q12 13 26 13z" />
    <glyph glyph-name="uniE616" unicode="&#xe616;" 
d="M512 163l-1 1h-1l-210 218l52 55l160 -166l160 166l52 -54z" />
    <glyph glyph-name="uniE617" unicode="&#xe617;" 
d="M165 -62v56q0 121 86 207t208 86h131q121 0 207 -86t86 -207v-56h66v53q0 121 -75.5 216.5t-191.5 128.5q53 38 84 96.5t31 125.5q0 113 -80 192.5t-192.5 79.5t-192 -79.5t-79.5 -192.5q0 -66 30 -124t82 -96q-116 -31 -191 -127t-75 -220v-53h66zM318 558.5
q0 85.5 60.5 146t146 60.5t146 -60.5t60.5 -146t-60.5 -146t-146 -60.5t-146 60.5t-60.5 146z" />
    <glyph glyph-name="uniE618" unicode="&#xe618;" 
d="M589 649l11 -59v0q1 -9 8.5 -14t16 -3.5t13.5 8.5t4 16h-1l-10 59q-1 8 -8.5 13t-16 3.5t-13.5 -8.5t-3 -15h-1zM867 490q-2 9 -9 14t-16 3v0l-59 -10q-8 -2 -13 -9t-3.5 -15.5t8.5 -13.5t15 -4l59 11v0q9 1 14 8.5t4 15.5zM723 562q8 -5 16.5 -3.5t13.5 8.5l34 49v0
q5 7 3.5 15.5t-8.5 13.5t-15.5 3.5t-13.5 -8.5h-1l-34 -49q-5 -7 -3.5 -15.5t8.5 -13.5zM458 557l49 -34v0q7 -5 16 -3.5t14 8.5t3.5 16t-8.5 14h-1l-48 34q-8 5 -16.5 3.5t-13.5 -8.5t-3.5 -16t8.5 -14zM833 346v0l-49 34q-7 5 -15.5 3.5t-13.5 -8.5t-3.5 -15.5t8.5 -14.5
l49 -34v0q7 -5 15.5 -3.5t13.5 8.5t3.5 16t-8.5 14zM700 382q36 36 28 86q-7 40 -40 63t-73 16q-25 -4 -44.5 -19.5t-28.5 -38.5q-42 24 -91 24q-56 0 -102 -30.5t-67 -80.5q-48 -10 -79 -48t-31 -88q0 -58 40.5 -98.5t98.5 -40.5h5h295q58 1 99.5 43.5t41.5 101.5
q0 67 -52 110zM621 514q26 5 47.5 -10.5t25.5 -41.5q7 -37 -23 -61q-27 14 -58 15q-16 31 -43 54q10 37 51 44zM614 172q-11 -1 -14 0h-291v0h-1q-40 0 -66 26.5t-26 66.5t26.5 67t66.5 27h2q4 19 22 47h-1q12 19 28 32l2 2h1l1 1q39 30 88 30q48 0 86 -28.5t52 -72.5
q11 2 22 2t21 -2l8 -2q1 0 2 -1h1h1l1 -1h1q30 -11 48 -36t18 -59q0 -42 -28 -70.5t-71 -28.5z" />
    <glyph glyph-name="uniE619" unicode="&#xe619;" 
d="M604 756l15 -87v-1q2 -13 12.5 -20t23.5 -5t20.5 12.5t5.5 23.5v1v0l-16 87q-2 12 -12.5 19.5t-23.5 5t-20.5 -13t-4.5 -22.5zM1014.5 520.5q-2.5 12.5 -13 20t-23.5 5.5v0l-87 -15q-13 -3 -20.5 -13.5t-5 -23t13 -20t23.5 -5.5l86 15h1q13 3 20.5 13.5t5 23zM802.5 627
q10.5 -7 23 -5t20.5 12l50 73v0h1q7 11 5 23.5t-13 20t-23.5 5.5t-20.5 -13v0l-51 -73q-7 -10 -4.5 -23t13 -20zM409 620l72 -50v0q0 -1 1 -1q10 -7 23 -5t20.5 13t5 23.5t-12.5 20.5h-1l-72 51q-11 7 -23.5 4.5t-20 -13t-5.5 -23t13 -20.5zM965 306h-1v1l-72 50
q-10 8 -23 5.5t-20.5 -13t-5 -23.5t12.5 -20l72 -51v0h1q11 -7 23.5 -5t20 12.5t5.5 23.5t-13 20zM789 361q24 24 35 57.5t5 69.5q-10 59 -59 93.5t-108 23.5q-37 -6 -65.5 -29t-42.5 -57q-63 36 -135 36q-83 0 -151 -45.5t-100 -119.5q-71 -15 -117 -71.5t-46 -130.5
q0 -85 60.5 -145.5t145.5 -60.5h8h437q87 2 148 64.5t61 149.5q0 49 -20 92t-56 73zM670 556q39 7 71 -15.5t39 -61.5q4 -26 -5.5 -50t-29.5 -40q-40 20 -85 22q-25 46 -65 80q7 27 28 43.5t47 21.5zM656 50q-16 0 -20 1h-425h-1h-1q-59 0 -97 39t-38 97q0 59 38.5 98
t97.5 39h3q6 28 32 69q17 28 40 46v1q1 1 3 2l1 1q1 0 2 1q56 44 128 44q70 0 125.5 -41.5t76.5 -106.5q16 3 33 3q15 0 30 -3q6 -1 11 -2h1v-1h2q1 0 1.5 -0.5t1.5 -1t2 -0.5h1q45 -16 71 -52.5t26 -86.5q0 -62 -41.5 -103.5t-103.5 -42.5z" />
    <glyph glyph-name="uniE61A" unicode="&#xe61a;" 
d="M890 302q-2 -104 -52.5 -190.5t-137 -137t-189.5 -52.5q-102 -1 -189.5 51t-138 139.5t-51.5 189.5q-2 102 50 189t140 137.5t189 52.5q102 2 189.5 -50.5t137.5 -140t52 -188.5q0 -19 16 -27t31 0t15 27q-3 170 -116 294t-282 144q-111 13 -214 -32t-172.5 -132
t-90.5 -196t14.5 -214t115 -181t185.5 -108q112 -30 215.5 -5.5t188 97t126.5 174.5q28 68 30 159q0 18 -15 26t-31 0t-16 -26zM507 137q72 71 143 143q9 9 9 21.5t-9 21.5q-71 72 -143 143q-13 14 -30 8t-21 -21t7 -30q72 -72 144 -143v43q-72 -71 -144 -143
q-9 -10 -8.5 -22.5t9.5 -20t20.5 -9.5t22.5 9z" />
    <glyph glyph-name="uniE61B" unicode="&#xe61b;" horiz-adv-x="1036" 
d="M1002 647q-34 21 -78 0l-207 -100v42q0 46 -32.5 78.5t-78.5 32.5h-483q-46 0 -78.5 -28t-32.5 -68v-434q0 -47 19 -79t48 -32h44v45h-44q-3 0 -8 6.5t-10 23t-5 36.5v434q0 21 20 36t47 15h483q27 0 47 -19.5t20 -46.5v-419q0 -27 -20 -46.5t-47 -19.5h-343v-45h343
q46 0 78.5 32.5t32.5 78.5v41l207 -100q21 -11 41 -11q21 0 37 10q34 22 34 71v396q0 49 -34 70zM991 181q0 -25 -13 -33t-35 3l-226 110v237l226 109q22 11 35 2.5t13 -32.5v-396zM173 539zM140 538.5q0 13.5 9.5 23t23 9.5t23 -9.5t9.5 -23t-9.5 -22.5t-23 -9t-23 9
t-9.5 22.5zM817 263z" />
    <glyph glyph-name="uniE61C" unicode="&#xe61c;" 
d="M892 834h-760q-23 0 -38.5 -16t-15.5 -38v-792q0 -22 15.5 -38t38.5 -16h760q23 0 38.5 16t15.5 38v792q0 22 -15.5 38t-38.5 16zM900 13q0 -13 -9.5 -22.5t-23.5 -9.5h-710q-14 0 -23.5 9.5t-9.5 22.5v742q0 13 9.5 22.5t23.5 9.5h710q14 0 23.5 -9.5t9.5 -22.5v-742z
M479 663h-229q-14 0 -23.5 -9.5t-9.5 -22.5v-230q0 -13 9.5 -23t23.5 -10h229q14 0 23.5 10t9.5 23v230q0 13 -9.5 22.5t-23.5 9.5zM465 438q0 -9 -6.5 -16t-16.5 -7h-155q-10 0 -16.5 7t-6.5 16v155q0 10 6.5 17t16.5 7h155q10 0 16.5 -7t6.5 -17v-155zM582 570h15h171h16
q9 0 16 7t7 16.5t-7 16.5t-16 7h-16h-171h-15q-10 0 -16.5 -7t-6.5 -16.5t6.5 -16.5t16.5 -7zM784 462h-16h-171h-15q-10 0 -16.5 -7t-6.5 -16.5t6.5 -16.5t16.5 -7h15h171h16q9 0 16 7t7 16.5t-7 16.5t-16 7zM784 151h-16h-16h-480h-16h-16q-9 0 -16 -6.5t-7 -16.5t7 -16.5
t16 -6.5h16h16h480h16h16q9 0 16 6.5t7 16.5t-7 16.5t-16 6.5zM240 260h16h16h480h16h16q9 0 16 7t7 16.5t-7 16t-16 6.5h-16h-16h-480h-16h-16q-9 0 -16 -6.5t-7 -16t7 -16.5t16 -7z" />
    <glyph glyph-name="uniE61D" unicode="&#xe61d;" 
d="M676 106h-549q-27 0 -46 19.5t-19 45.5v363q0 27 19 46t46 19h549q27 0 46 -19t19 -46v-363q0 -26 -19 -45.5t-46 -19.5zM127 553q-8 0 -13.5 -5.5t-5.5 -13.5v-363q0 -7 5.5 -13t13.5 -6h549q8 0 13.5 6t5.5 13v363q0 8 -5.5 13.5t-13.5 5.5h-549zM939 131q-7 0 -12 3
l-221 133q-8 5 -10.5 14t2.5 17.5t14 10.5t18 -3l186 -111v304l-187 -109q-8 -5 -17 -2.5t-14 11t-2.5 17.5t10.5 14l221 129q12 7 23.5 0.5t11.5 -20.5v-385q0 -13 -12 -20q-5 -3 -11 -3z" />
    <glyph glyph-name="uniE61E" unicode="&#xe61e;" 
d="M707 274h189q8 0 13 -5.5t5 -13t-5.5 -12.5t-12.5 -5h-128v-201q0 -8 -5.5 -13.5t-13 -5.5t-13 5.5t-5.5 13.5v201h-73v-201q0 -8 -5.5 -13.5t-13 -5.5t-12.5 5.5t-5 13.5v201h-110v-238q0 -8 -5.5 -13t-13 -5t-13 5.5t-5.5 12.5v256v0q0 8 5.5 13t13.5 5v0h174l27 73
h-201q-8 0 -13.5 5.5t-5.5 13t5.5 13t13.5 5.5h402q8 0 13 -5.5t5 -13t-5.5 -13t-12.5 -5.5h-162zM512 640h165v-201q0 -8 5 -13t12.5 -5t13 5.5t5.5 12.5v201h183q7 0 12.5 5.5t5.5 13t-5 13t-13 5.5h-183v73h183q7 0 12.5 5t5.5 12.5t-5 13t-13 5.5h-402q-8 0 -13.5 -5
t-5.5 -12.5t5.5 -13t13.5 -5.5h183v-73h-183v0q-8 0 -13.5 -5.5t-5.5 -12.5v-111q0 -7 5.5 -12.5t13 -5.5t13 5.5t5.5 12.5v92zM293 457v311q0 8 -5.5 13t-13.5 5q-7 0 -12.5 -5t-5.5 -13v-311h-128q-7 0 -12.5 -5.5t-5.5 -12.5q0 -8 5.5 -13t12.5 -5h128v-421q0 -8 5.5 -13
t12.5 -5q8 0 13.5 5t5.5 13v421h127q8 0 13.5 5t5.5 13q0 7 -5.5 12.5t-13.5 5.5h-127zM549 585q0 8 5 13t13 5h36q8 0 13.5 -5t5.5 -13t-5.5 -13t-13.5 -5h-36q-8 0 -13 5.5t-5 12.5zM549 512q0 8 5 13t13 5h36q8 0 13.5 -5.5t5.5 -12.5q0 -8 -5.5 -13t-13.5 -5h-36
q-8 0 -13 5.5t-5 12.5zM768 585q0 8 5.5 13t12.5 5h37q7 0 12.5 -5t5.5 -13t-5 -13t-13 -5h-37q-7 0 -12.5 5.5t-5.5 12.5zM768 512q0 8 5.5 13t12.5 5h37q7 0 12.5 -5.5t5.5 -12.5q0 -8 -5 -13t-13 -5h-37q-7 0 -12.5 5.5t-5.5 12.5zM364 732q1 8 7 12t13.5 3t12 -7.5
t3.5 -13.5l-32 -181q-1 -7 -7.5 -11.5t-14 -3t-11.5 7.5t-3 14zM185 732q-1 8 -7.5 12t-14 3t-11.5 -7.5t-3 -13.5l32 -181q1 -7 7.5 -11.5t13.5 -3t11.5 7.5t3.5 14zM878 256q0 8 5.5 13t13 5t12.5 -5.5t5 -12.5v-256q0 -8 -5.5 -13t-13 -5t-12.5 5.5t-5 12.5v256zM878 659
q0 7 5.5 12.5t13 5.5t12.5 -5.5t5 -12.5v-111q0 -7 -5.5 -12.5t-13 -5.5t-12.5 5.5t-5 12.5v111zM343.5 382.5q7.5 0.5 13.5 -4.5t7 -13l28 -327q1 -7 -4 -13t-12.5 -7t-13.5 4t-6 13l-29 327q-1 8 4 14t12.5 6.5zM192 35q-1 -8 -7 -13t-13.5 -4t-12 7t-4.5 13l29 327
q1 8 6.5 13t13 4.5t12.5 -6.5t4 -14z" />
    <glyph glyph-name="uniE61F" unicode="&#xe61f;" 
d="M946 772q0 6 -4.5 10.5t-10.5 4.5h-233q-64 0 -109.5 -45t-45.5 -110v-15v-137v-298v-15v-78v-15v-44q47 41 109 43v1h279q6 0 10.5 4.5t4.5 10.5v683zM481 480v152q0 65 -45.5 110t-109.5 45h-233q-6 0 -10.5 -4.5t-4.5 -10.5v-683q0 -6 4.5 -10.5t10.5 -4.5h279v-1
q62 -2 109 -43v44v15v78v15v298zM946 12h-152h-142v-1q-44 -3 -75 -33.5t-34 -74.5h-62q-3 44 -34 74.5t-75 33.5v1h-142h-152q-26 0 -44 18t-18 44v713q0 26 18 44t44 18h269l1 -1q78 -8 133 -64v3v-3q17 -17 31 -41q26 44 69 72t95 33l1 1h269q26 0 44 -18t18 -44v-713
q0 -26 -18 -44t-44 -18z" />
    <glyph glyph-name="uniE620" unicode="&#xe620;" 
d="M512.5 831q-86.5 0 -160 -42t-116.5 -115.5t-43 -161.5q0 -66 26 -144.5t69 -152.5t88 -137t93 -118l6 -6q4 -4 15 -10t21 -6h2q24 0 42 22q48 55 93 118t88 137t69 152.5t26 144.5q0 88 -42.5 161.5t-116 115.5t-160 42zM512 768q52 0 99 -20q46 -20 82 -55
q74 -74 74 -181q0 -55 -23 -125q-22 -66 -63 -140q-68 -122 -169 -240q-101 118 -169 240q-41 74 -63 140q-23 70 -23 125q0 107 75 181q35 35 81 55q47 20 99 20zM512 640q-53 0 -90 -37.5t-37 -90t37 -90t90 -37.5t90.5 37.5t37.5 90t-37.5 90t-90.5 37.5zM512.5 576
q26.5 0 45 -18.5t18.5 -45t-18.5 -45t-45 -18.5t-45.5 18.5t-19 45t19 45t45.5 18.5z" />
    <glyph glyph-name="uniE621" unicode="&#xe621;" 
d="M512 124q-79 0 -134.5 56t-55.5 135v244q0 78 55.5 134t134.5 56t134.5 -56t55.5 -134v-244q0 -79 -55.5 -135t-134.5 -56zM512 673q-47 0 -80.5 -33.5t-33.5 -80.5v-244q0 -47 33.5 -80.5t80.5 -33.5t80.5 33.5t33.5 80.5v244q0 47 -33.5 80.5t-80.5 33.5zM512 -21
q-130 0 -222 92t-92 222q0 16 11.5 27t27 11t27 -11t11.5 -27q0 -98 69.5 -168t167.5 -70t167.5 70t69.5 168q0 16 11.5 27t27 11t27 -11t11.5 -27q0 -130 -92 -222t-222 -92zM514 -149q-15 0 -26 11t-12 26l-2 128q0 16 10.5 27.5t26.5 11.5h1q16 0 27 -11t11 -26l3 -128
q0 -16 -11 -27.5t-27 -11.5h-1z" />
  </font>
</defs>
</svg>
